<?xml version="1.0" encoding="utf-8"?>
<!-- Generator: Adobe Illustrator 23.0.1, SVG Export Plug-In . SVG Version: 6.00 Build 0)  -->
<svg version="1.1" id="Слой_1" xmlns="http://www.w3.org/2000/svg" xmlns:xlink="http://www.w3.org/1999/xlink" x="0px" y="0px"
	 viewBox="0 0 26 26" style="enable-background:new 0 0 26 26;" xml:space="preserve">
<style type="text/css">
	.st0{fill:#61AEE1;}
	.st1{fill:#FFFFFF;}
	.st2{clip-path:url(#SVGID_2_);fill:url(#SVGID_3_);}
	.st3{clip-path:url(#SVGID_5_);fill:url(#SVGID_6_);}
	.st4{clip-path:url(#SVGID_8_);fill:url(#SVGID_9_);}
	.st5{clip-path:url(#SVGID_11_);fill:url(#SVGID_12_);}
	.st6{clip-path:url(#SVGID_14_);fill:url(#SVGID_15_);}
	.st7{clip-path:url(#SVGID_17_);fill:url(#SVGID_18_);}
	.st8{clip-path:url(#SVGID_20_);fill:url(#SVGID_21_);}
	.st9{clip-path:url(#SVGID_23_);fill:url(#SVGID_24_);}
</style>
<g>
	<path class="st0" d="M23.24,26H2.76C1.23,26,0,24.77,0,23.24V2.76C0,1.23,1.23,0,2.76,0h20.48C24.77,0,26,1.23,26,2.76v20.48
		C26,24.77,24.77,26,23.24,26z"/>
	<rect y="17.52" class="st1" width="24.95" height="1.1"/>
	<g>
		<g>
			<defs>
				<path id="SVGID_1_" d="M16.19,11.85c0.07-0.77,0.74-1.39,1.51-1.39c0.77,0,1.33,0.62,1.27,1.39c-0.07,0.77-0.75,1.39-1.51,1.39
					C16.68,13.24,16.11,12.62,16.19,11.85 M18.28,6.19l-0.5-0.15l-0.22,0.18l-0.52-0.09l-0.19,0.2l-0.53-0.02l-0.17,0.22l-0.54,0.05
					l-0.14,0.24l-0.53,0.11l-0.11,0.25L14.3,7.36l-0.08,0.26l-0.5,0.24l-0.05,0.27l-0.47,0.3l-0.02,0.27l-0.44,0.35l0.02,0.26
					l-0.4,0.4l0.05,0.25l-0.35,0.44l0.08,0.24l-0.29,0.48l0.12,0.23l-0.23,0.5l0.15,0.21l-0.17,0.52l0.17,0.19l-0.11,0.53l0.2,0.16
					L11.94,14l0.22,0.13l0.03,0.53l0.24,0.1l0.1,0.52l0.25,0.07l0.07,0.38l0.35,0.15l0.23,0.46l0.27,0.01l0.28,0.43l0.27-0.03
					l0.34,0.38l0.27-0.06l0.39,0.33l0.26-0.09l0.33,0.21h0.23l0.12-0.06l0.13,0.06h1.26l0.03-0.02l0.14,0.02h0.44l0.13-0.14
					l0.53,0.02L19,17.18l0.54-0.05l0.14-0.24l0.54-0.11l0.11-0.25l0.52-0.18l0.08-0.26l0.5-0.24l0.05-0.27l0.47-0.3l0.02-0.27
					l0.44-0.35l-0.02-0.26l0.4-0.4l-0.05-0.26l0.35-0.44l-0.09-0.24l0.29-0.48l-0.12-0.23l0.23-0.5l-0.15-0.21l0.17-0.52l-0.17-0.19
					l0.11-0.53l-0.2-0.16l0.04-0.54l-0.22-0.13l-0.03-0.53l-0.23-0.1l-0.1-0.52l-0.25-0.07l-0.16-0.49l-0.26-0.04l-0.22-0.46
					l-0.27-0.01l-0.28-0.43l-0.27,0.03l-0.34-0.38l-0.27,0.06l-0.39-0.33L19.66,6.4l-0.43-0.27l-0.25,0.12l-0.47-0.21L18.28,6.19z"
					/>
			</defs>
			<clipPath id="SVGID_2_">
				<use xlink:href="#SVGID_1_"  style="overflow:visible;"/>
			</clipPath>
			
				<linearGradient id="SVGID_3_" gradientUnits="userSpaceOnUse" x1="-276.7546" y1="201.6073" x2="-275.7539" y2="201.6073" gradientTransform="matrix(6.063 -10.5014 -10.5014 -6.063 3809.6272 -1666.8806)">
				<stop  offset="0" style="stop-color:#FFFFFF"/>
				<stop  offset="1" style="stop-color:#BAD5F0"/>
			</linearGradient>
			<polygon class="st2" points="6.75,14.65 14.65,0.96 28.4,8.91 20.5,22.59 			"/>
		</g>
		<g>
			<defs>
				<path id="SVGID_4_" d="M16.19,11.85c0.07-0.77,0.74-1.39,1.51-1.39c0.77,0,1.33,0.62,1.27,1.39c-0.07,0.77-0.75,1.39-1.51,1.39
					C16.68,13.24,16.11,12.62,16.19,11.85 M12.88,11.85c-0.23,2.59,1.68,4.69,4.28,4.69c2.59,0,4.88-2.1,5.11-4.69
					c0.23-2.59-1.68-4.69-4.27-4.69C15.4,7.16,13.11,9.26,12.88,11.85"/>
			</defs>
			<clipPath id="SVGID_5_">
				<use xlink:href="#SVGID_4_"  style="overflow:visible;"/>
			</clipPath>
			
				<linearGradient id="SVGID_6_" gradientUnits="userSpaceOnUse" x1="-274.9817" y1="196.6135" x2="-273.981" y2="196.6135" gradientTransform="matrix(4.8711 -8.437 -8.437 -4.8711 3013.4207 -1346.2205)">
				<stop  offset="0" style="stop-color:#BAD5F0"/>
				<stop  offset="1" style="stop-color:#FFFFFF"/>
			</linearGradient>
			<polygon class="st3" points="8.59,14.2 15.11,2.9 26.56,9.51 20.03,20.81 			"/>
		</g>
		<g>
			<defs>
				<polygon id="SVGID_7_" points="3.14,13.78 12.96,16.98 13,16.87 3.32,13.26 				"/>
			</defs>
			<clipPath id="SVGID_8_">
				<use xlink:href="#SVGID_7_"  style="overflow:visible;"/>
			</clipPath>
			
				<linearGradient id="SVGID_9_" gradientUnits="userSpaceOnUse" x1="-257.8174" y1="217.1742" x2="-256.8167" y2="217.1742" gradientTransform="matrix(9.8579 0 0 -9.8579 2544.6802 2156.0078)">
				<stop  offset="0" style="stop-color:#BAD5F0"/>
				<stop  offset="1" style="stop-color:#FFFFFF"/>
			</linearGradient>
			<rect x="3.14" y="13.26" class="st4" width="9.86" height="3.72"/>
		</g>
		<g>
			<defs>
				<polygon id="SVGID_10_" points="2.53,10.58 10.52,15.46 10.59,15.36 2.81,10.11 				"/>
			</defs>
			<clipPath id="SVGID_11_">
				<use xlink:href="#SVGID_10_"  style="overflow:visible;"/>
			</clipPath>
			
				<linearGradient id="SVGID_12_" gradientUnits="userSpaceOnUse" x1="-251.9558" y1="216.094" x2="-250.9551" y2="216.094" gradientTransform="matrix(8.0547 0 0 -8.0547 2031.9569 1753.3561)">
				<stop  offset="0" style="stop-color:#BAD5F0"/>
				<stop  offset="1" style="stop-color:#FFFFFF"/>
			</linearGradient>
			<rect x="2.53" y="10.11" class="st5" width="8.06" height="5.35"/>
		</g>
		<g>
			<defs>
				<polygon id="SVGID_13_" points="6.45,16.76 9.67,16.9 9.68,16.78 6.47,16.21 				"/>
			</defs>
			<clipPath id="SVGID_14_">
				<use xlink:href="#SVGID_13_"  style="overflow:visible;"/>
			</clipPath>
			
				<linearGradient id="SVGID_15_" gradientUnits="userSpaceOnUse" x1="-204.2102" y1="207.2937" x2="-203.2098" y2="207.2937" gradientTransform="matrix(3.2349 0 0 -3.2349 667.0386 687.1232)">
				<stop  offset="0" style="stop-color:#BAD5F0"/>
				<stop  offset="1" style="stop-color:#FFFFFF"/>
			</linearGradient>
			<rect x="6.45" y="16.21" class="st6" width="3.24" height="0.69"/>
		</g>
		<g>
			<defs>
				<polygon id="SVGID_16_" points="7.81,11.2 9.75,13.64 9.85,13.57 8.25,10.86 				"/>
			</defs>
			<clipPath id="SVGID_17_">
				<use xlink:href="#SVGID_16_"  style="overflow:visible;"/>
			</clipPath>
			
				<linearGradient id="SVGID_18_" gradientUnits="userSpaceOnUse" x1="-157.1139" y1="198.6143" x2="-156.1133" y2="198.6143" gradientTransform="matrix(2.0342 0 0 -2.0342 327.4122 416.2671)">
				<stop  offset="0" style="stop-color:#BAD5F0"/>
				<stop  offset="1" style="stop-color:#FFFFFF"/>
			</linearGradient>
			<rect x="7.81" y="10.86" class="st7" width="2.04" height="2.78"/>
		</g>
		<g>
			<defs>
				<polygon id="SVGID_19_" points="2.06,15.1 4.32,15.37 4.35,15.25 2.06,14.57 				"/>
			</defs>
			<clipPath id="SVGID_20_">
				<use xlink:href="#SVGID_19_"  style="overflow:visible;"/>
			</clipPath>
			
				<linearGradient id="SVGID_21_" gradientUnits="userSpaceOnUse" x1="-184.8444" y1="203.7155" x2="-183.8437" y2="203.7155" gradientTransform="matrix(2.603 0 0 -2.603 482.8973 545.2486)">
				<stop  offset="0" style="stop-color:#BAD5F0"/>
				<stop  offset="1" style="stop-color:#FFFFFF"/>
			</linearGradient>
			<rect x="2.06" y="14.57" class="st8" width="2.29" height="0.79"/>
		</g>
		<g>
			<defs>
				<polygon id="SVGID_22_" points="2.06,11.75 4.25,12.48 4.29,12.45 2.06,11.16 				"/>
			</defs>
			<clipPath id="SVGID_23_">
				<use xlink:href="#SVGID_22_"  style="overflow:visible;"/>
			</clipPath>
			
				<linearGradient id="SVGID_24_" gradientUnits="userSpaceOnUse" x1="-176.9961" y1="202.2766" x2="-175.9954" y2="202.2766" gradientTransform="matrix(2.4121 0 0 -2.4121 428.8065 499.7365)">
				<stop  offset="0" style="stop-color:#BAD5F0"/>
				<stop  offset="1" style="stop-color:#FFFFFF"/>
			</linearGradient>
			<rect x="2.06" y="11.16" class="st9" width="2.23" height="1.32"/>
		</g>
	</g>
</g>
</svg>
