<?xml version="1.0" encoding="utf-8"?>
<!-- Generator: Adobe Illustrator 23.0.1, SVG Export Plug-In . SVG Version: 6.00 Build 0)  -->
<svg version="1.1" id="Слой_1" xmlns="http://www.w3.org/2000/svg" xmlns:xlink="http://www.w3.org/1999/xlink" x="0px" y="0px"
	 viewBox="0 0 26 26" style="enable-background:new 0 0 26 26;" xml:space="preserve">
<style type="text/css">
	.st0{fill:#61ADE0;}
	.st1{clip-path:url(#SVGID_2_);fill:url(#SVGID_3_);}
</style>
<g>
	<path class="st0" d="M23.24,26H2.76C1.23,26,0,24.77,0,23.24V2.76C0,1.23,1.23,0,2.76,0h20.48C24.77,0,26,1.23,26,2.76v20.48
		C26,24.77,24.77,26,23.24,26z"/>
	<g>
		<defs>
			<path id="SVGID_1_" d="M17.1,13l0.78,0.78l-2.33,2.33l2.33,2.33l-0.78,0.78l-2.33-2.34l-2.33,2.34l-0.78-0.78l2.33-2.33
				l-2.33-2.33L12.44,13l2.33,2.33L17.1,13z M14.79,11.65V9.58c0-0.39,0.32-0.7,0.7-0.7h1.32c0.32,0,0.47,0.06,0.64,0.2
				c0.31,0.26,2.56,2.17,2.68,2.29c0.08,0.08,0.13,0.14,0.22,0.23c0.17,0.18,0.17,0.3,0.17,0.48c0,0-0.05,0.27-0.28,0.27
				c-0.12,0-4.76,0.01-4.76,0.01C15.11,12.36,14.79,12.04,14.79,11.65 M13.14,7.32c-1.21,0-1.71,0.25-2.5,1.04l-1.77,1.8
				c-0.92,0.86-1.22,0.99-1.22,2.2v5.96c0,1.21,0.99,2.2,2.2,2.2h9.9c1.21,0,2.2-0.99,2.2-2.2v-6.24c0-1.21-0.49-1.4-1.47-2.38
				l-1.41-1.22c-0.92-0.73-1.41-1.16-2.63-1.16H13.14z M4.05,5.83c0.53,0,0.87,0,1.01,0.04c0.08,0.03,0.21,0.15,0.46,0.4l1.98,1.98
				L6.7,9.07l1.32,1.32l2.64-2.65L9.34,6.42L8.53,7.23L6.55,5.25c-0.84-0.84-1.06-0.88-2.5-0.88V5.83z"/>
		</defs>
		<clipPath id="SVGID_2_">
			<use xlink:href="#SVGID_1_"  style="overflow:visible;"/>
		</clipPath>
		
			<linearGradient id="SVGID_3_" gradientUnits="userSpaceOnUse" x1="-283.0114" y1="207.0527" x2="-282.0107" y2="207.0527" gradientTransform="matrix(-7.000000e-07 -16.1328 -16.1328 7.000000e-07 3353.3394 -4545.2476)">
			<stop  offset="0" style="stop-color:#FFFFFF"/>
			<stop  offset="0.0943" style="stop-color:#F9FBFE"/>
			<stop  offset="0.2232" style="stop-color:#E7F0FA"/>
			<stop  offset="0.3716" style="stop-color:#CBDFF3"/>
			<stop  offset="0.4475" style="stop-color:#B9D4EF"/>
			<stop  offset="0.4475" style="stop-color:#C4DBF1"/>
			<stop  offset="0.4475" style="stop-color:#DAE8F6"/>
			<stop  offset="0.4475" style="stop-color:#EAF2FA"/>
			<stop  offset="0.4475" style="stop-color:#F6FAFD"/>
			<stop  offset="0.4475" style="stop-color:#FDFEFF"/>
			<stop  offset="0.4475" style="stop-color:#FFFFFF"/>
			<stop  offset="0.5485" style="stop-color:#F7FAFD"/>
			<stop  offset="0.7067" style="stop-color:#E0ECF8"/>
			<stop  offset="0.9016" style="stop-color:#BCD6F0"/>
			<stop  offset="0.9171" style="stop-color:#B9D4EF"/>
			<stop  offset="1" style="stop-color:#B9D4EF"/>
		</linearGradient>
		<rect x="4.05" y="4.38" class="st1" width="17.89" height="16.14"/>
	</g>
</g>
</svg>
