<?xml version="1.0" encoding="utf-8"?>
<!-- Generator: Adobe Illustrator 23.0.1, SVG Export Plug-In . SVG Version: 6.00 Build 0)  -->
<svg version="1.1" id="Слой_1" xmlns="http://www.w3.org/2000/svg" xmlns:xlink="http://www.w3.org/1999/xlink" x="0px" y="0px"
	 viewBox="0 0 26 26" style="enable-background:new 0 0 26 26;" xml:space="preserve">
<style type="text/css">
	.st0{fill:#61ADE0;}
	.st1{clip-path:url(#SVGID_2_);fill:url(#SVGID_3_);}
</style>
<g>
	<path class="st0" d="M23.24,26H2.76C1.23,26,0,24.77,0,23.24V2.76C0,1.23,1.23,0,2.76,0h20.48C24.77,0,26,1.23,26,2.76v20.48
		C26,24.77,24.77,26,23.24,26z"/>
	<g>
		<defs>
			<path id="SVGID_1_" d="M7.01,18.2c0-0.83,0.97-1.51,2.74-1.9c0.16-0.03,0.32-0.07,0.49-0.1c0.2-0.04,0.39,0.1,0.42,0.3
				c0.03,0.2-0.1,0.39-0.3,0.43c-0.16,0.03-0.31,0.06-0.46,0.09c-1.49,0.33-2.17,0.84-2.17,1.18c0,0.6,1.95,1.47,5.01,1.47
				s5.01-0.87,5.01-1.47c0-0.32-0.59-0.79-1.89-1.12c-0.2-0.05-0.32-0.25-0.27-0.45c0.05-0.2,0.25-0.32,0.45-0.27
				c1.58,0.4,2.45,1.05,2.45,1.83c0,1.44-2.89,2.2-5.74,2.2C9.9,20.4,7.01,19.64,7.01,18.2 M10.64,18.49c0-0.64,0.17-0.97,0.32-1.27
				c0.13-0.25,0.24-0.47,0.24-0.94c0-0.46-0.11-0.68-0.24-0.93c-0.15-0.29-0.32-0.63-0.32-1.26c0-0.64,0.17-0.97,0.32-1.26
				c0.13-0.25,0.24-0.47,0.24-0.94c0-0.46-0.11-0.68-0.24-0.94c-0.15-0.29-0.32-0.63-0.32-1.26c0-0.2,0.17-0.37,0.37-0.37
				c0.2,0,0.37,0.16,0.37,0.37c0,0.46,0.11,0.68,0.24,0.94c0.15,0.29,0.31,0.63,0.31,1.26c0,0.64-0.17,0.97-0.31,1.26
				c-0.13,0.25-0.24,0.47-0.24,0.94c0,0.46,0.11,0.68,0.24,0.94c0.15,0.29,0.31,0.63,0.31,1.26c0,0.64-0.17,0.97-0.31,1.27
				c-0.13,0.25-0.24,0.47-0.24,0.94c0,0.2-0.16,0.37-0.37,0.37C10.81,18.85,10.64,18.69,10.64,18.49 M12.36,18.49
				c0-0.64,0.17-0.97,0.31-1.27c0.13-0.25,0.24-0.47,0.24-0.94c0-0.46-0.11-0.68-0.24-0.93c-0.15-0.29-0.31-0.63-0.31-1.26
				c0-0.64,0.17-0.97,0.31-1.26c0.13-0.25,0.24-0.47,0.24-0.94c0-0.46-0.11-0.68-0.24-0.94c-0.15-0.29-0.31-0.63-0.31-1.26
				c0-0.2,0.16-0.37,0.37-0.37c0.2,0,0.37,0.16,0.37,0.37c0,0.46,0.11,0.68,0.24,0.94c0.15,0.29,0.32,0.63,0.32,1.26
				c0,0.64-0.17,0.97-0.32,1.26c-0.13,0.25-0.24,0.47-0.24,0.94c0,0.46,0.11,0.68,0.24,0.94c0.15,0.29,0.32,0.63,0.32,1.26
				c0,0.64-0.17,0.97-0.32,1.27c-0.13,0.25-0.24,0.47-0.24,0.94c0,0.2-0.17,0.37-0.37,0.37C12.52,18.85,12.36,18.69,12.36,18.49
				 M14.07,18.49c0-0.64,0.17-0.97,0.32-1.27c0.13-0.25,0.24-0.47,0.24-0.94c0-0.46-0.11-0.68-0.24-0.93
				c-0.15-0.29-0.32-0.63-0.32-1.26c0-0.64,0.17-0.97,0.32-1.26c0.13-0.25,0.24-0.47,0.24-0.94c0-0.46-0.11-0.68-0.24-0.94
				c-0.15-0.29-0.31-0.63-0.31-1.26c0-0.2,0.16-0.37,0.37-0.37c0.21,0,0.37,0.16,0.37,0.37c0,0.46,0.11,0.68,0.24,0.94
				c0.15,0.29,0.31,0.63,0.32,1.26c0,0.64-0.17,0.97-0.32,1.26c-0.13,0.25-0.24,0.47-0.24,0.94c0,0.46,0.11,0.68,0.24,0.94
				c0.15,0.29,0.32,0.63,0.32,1.26c0,0.64-0.17,0.97-0.32,1.27c-0.13,0.25-0.24,0.47-0.24,0.94c0,0.2-0.16,0.37-0.37,0.37
				C14.24,18.85,14.07,18.69,14.07,18.49 M11.68,5.45l-2.65,4.59c-0.72,1.26-1.91,3.32-2.64,4.57l-2.65,4.59
				C3.01,20.47,3.6,21.5,5.05,21.5h15.89c1.45,0,2.04-1.03,1.32-2.29l-2.65-4.59c-0.73-1.26-1.92-3.32-2.64-4.57l-2.65-4.59
				C13.96,4.82,13.48,4.5,13,4.5S12.04,4.82,11.68,5.45"/>
		</defs>
		<clipPath id="SVGID_2_">
			<use xlink:href="#SVGID_1_"  style="overflow:visible;"/>
		</clipPath>
		
			<linearGradient id="SVGID_3_" gradientUnits="userSpaceOnUse" x1="-286.2542" y1="224.8389" x2="-285.2534" y2="224.8389" gradientTransform="matrix(-7.000000e-07 -16.978 -16.978 7.000000e-07 3830.3152 -4838.5288)">
			<stop  offset="0" style="stop-color:#FFFFFF"/>
			<stop  offset="0.0943" style="stop-color:#F9FBFE"/>
			<stop  offset="0.2232" style="stop-color:#E7F0FA"/>
			<stop  offset="0.3716" style="stop-color:#CBDFF3"/>
			<stop  offset="0.4475" style="stop-color:#B9D4EF"/>
			<stop  offset="0.4475" style="stop-color:#C4DBF1"/>
			<stop  offset="0.4475" style="stop-color:#DAE8F6"/>
			<stop  offset="0.4475" style="stop-color:#EAF2FA"/>
			<stop  offset="0.4475" style="stop-color:#F6FAFD"/>
			<stop  offset="0.4475" style="stop-color:#FDFEFF"/>
			<stop  offset="0.4475" style="stop-color:#FFFFFF"/>
			<stop  offset="0.5485" style="stop-color:#F7FAFD"/>
			<stop  offset="0.7067" style="stop-color:#E0ECF8"/>
			<stop  offset="0.9016" style="stop-color:#BCD6F0"/>
			<stop  offset="0.9171" style="stop-color:#B9D4EF"/>
			<stop  offset="1" style="stop-color:#B9D4EF"/>
		</linearGradient>
		<rect x="3.01" y="4.5" class="st1" width="19.98" height="16.99"/>
	</g>
</g>
</svg>
