<?xml version="1.0" encoding="utf-8"?>
<!-- Generator: Adobe Illustrator 23.0.1, SVG Export Plug-In . SVG Version: 6.00 Build 0)  -->
<svg version="1.1" id="Слой_1" xmlns="http://www.w3.org/2000/svg" xmlns:xlink="http://www.w3.org/1999/xlink" x="0px" y="0px"
	 viewBox="0 0 26 26" style="enable-background:new 0 0 26 26;" xml:space="preserve">
<style type="text/css">
	.st0{fill:#61ADE0;}
	.st1{clip-path:url(#SVGID_2_);fill:url(#SVGID_3_);}
	.st2{clip-path:url(#SVGID_5_);fill:url(#SVGID_6_);}
</style>
<g>
	<path class="st0" d="M23.24,26H2.76C1.23,26,0,24.77,0,23.24V2.76C0,1.23,1.23,0,2.76,0h20.48C24.77,0,26,1.23,26,2.76v20.48
		C26,24.77,24.77,26,23.24,26z"/>
	<g>
		<g>
			<defs>
				<path id="SVGID_1_" d="M15.64,4.51h-5.27h-5.3c-1.45,0-2.04,1.03-1.32,2.28l2.65,4.59c0.73,1.26,1.91,3.31,2.64,4.57l2.65,4.59
					c0.73,1.25,1.91,1.25,2.64,0l2.65-4.59c0.73-1.26,1.91-3.31,2.64-4.57l2.65-4.59c0.73-1.26,0.13-2.28-1.32-2.28H15.64z"/>
			</defs>
			<clipPath id="SVGID_2_">
				<use xlink:href="#SVGID_1_"  style="overflow:visible;"/>
			</clipPath>
			
				<linearGradient id="SVGID_3_" gradientUnits="userSpaceOnUse" x1="-276.9184" y1="208.3095" x2="-275.9177" y2="208.3095" gradientTransform="matrix(-7.000000e-07 -16.9619 -16.9619 7.000000e-07 3546.3252 -4675.5757)">
				<stop  offset="0" style="stop-color:#FFFFFF"/>
				<stop  offset="1" style="stop-color:#B9D4EF"/>
			</linearGradient>
			<rect x="3.02" y="4.51" class="st1" width="19.96" height="17.29"/>
		</g>
		<g>
			<defs>
				<polygon id="SVGID_4_" points="9.11,6.44 10.59,13.03 11.3,9.46 12.72,18.01 13.51,9.31 14.41,14.9 15.57,8.75 16.28,12.31 
					17.44,6.44 				"/>
			</defs>
			<clipPath id="SVGID_5_">
				<use xlink:href="#SVGID_4_"  style="overflow:visible;"/>
			</clipPath>
			
				<linearGradient id="SVGID_6_" gradientUnits="userSpaceOnUse" x1="-273.434" y1="201.2014" x2="-272.4333" y2="201.2014" gradientTransform="matrix(-5.000000e-07 -11.5645 -11.5645 5.000000e-07 2340.0691 -3144.1169)">
				<stop  offset="0" style="stop-color:#B9D4EF"/>
				<stop  offset="0.5414" style="stop-color:#B9D4EF"/>
				<stop  offset="0.5895" style="stop-color:#C9DEF3"/>
				<stop  offset="0.677" style="stop-color:#E1EDF8"/>
				<stop  offset="0.7702" style="stop-color:#F2F7FC"/>
				<stop  offset="0.8723" style="stop-color:#FCFDFE"/>
				<stop  offset="1" style="stop-color:#FFFFFF"/>
			</linearGradient>
			<rect x="9.11" y="6.44" class="st2" width="8.32" height="11.57"/>
		</g>
		<g>
			<polygon class="st0" points="17.44,6.44 17.11,6.37 16.28,10.58 15.56,6.98 14.44,12.94 13.42,6.6 12.62,15.37 11.33,7.59 
				10.57,11.4 9.54,6.78 17.44,6.78 17.44,6.44 17.11,6.37 17.44,6.44 17.44,6.1 8.69,6.1 10.6,14.66 11.27,11.34 12.82,20.65 
				13.61,12.01 14.39,16.86 15.58,10.52 16.28,14.05 17.85,6.1 17.44,6.1 			"/>
		</g>
	</g>
</g>
</svg>
