<?xml version="1.0" encoding="iso-8859-1"?>
<!-- Generator: Adobe Illustrator 19.0.0, SVG Export Plug-In . SVG Version: 6.00 Build 0)  -->
<svg version="1.1" id="Capa_1" xmlns="http://www.w3.org/2000/svg" xmlns:xlink="http://www.w3.org/1999/xlink" x="0px" y="0px"
	 viewBox="0 0 496 496" style="enable-background:new 0 0 496 496;" xml:space="preserve">
<g>
	<g>
		<g>
			<path d="M487.16,321.368c5.448-2.728,8.84-8.208,8.84-14.312v-53.464c0-11.168-5.952-21.688-15.528-27.44L456,211.472V160h-64
				v51.472l-24.472,14.68c-9.576,5.752-15.528,16.264-15.528,27.44v53.464c0,6.104,3.392,11.584,8.84,14.312l7.16,3.576v54.112
				l-7.16,3.576c-5.448,2.728-8.84,8.208-8.84,14.312V456c0,22.056,17.944,40,40,40h64c22.056,0,40-17.944,40-40v-59.056
				c0-6.104-3.392-11.584-8.84-14.312l-7.16-3.576v-54.112L487.16,321.368z M408,176h32v16h-32V176z M375.768,239.864L408,220.528
				V208h32v12.528l32.232,19.336c4.792,2.88,7.768,8.136,7.768,13.728v18.2c-30-1.032-50.736-7.592-69.104-13.504
				c-13.76-4.432-26.92-8.608-41.92-9.872C370.192,244.912,372.512,241.816,375.768,239.864z M480,456c0,13.232-10.768,24-24,24h-64
				c-13.232,0-24-10.768-24-24v-59.056l9.888-4.944h92.216l9.896,4.944V456z M464,360v16h-80v-16H464z M384,344v-16h80v16H384z
				 M470.112,312h-92.224L368,307.056V264.52c13,1.144,24.792,4.752,37.992,9c19.512,6.28,41.56,13.248,74.008,14.272v19.264
				L470.112,312z"/>
			<path d="M304.472,226.152L280,211.472V160h-64v51.472l-24.472,14.68c-9.576,5.752-15.528,16.264-15.528,27.44v53.464
				c0,6.104,3.392,11.584,8.84,14.312l7.16,3.576v54.112l-7.16,3.576c-5.448,2.728-8.84,8.208-8.84,14.312V456
				c0,22.056,17.944,40,40,40h64c22.056,0,40-17.944,40-40v-59.056c0-6.104-3.392-11.584-8.84-14.312l-7.16-3.576v-54.112
				l7.16-3.576c5.448-2.728,8.84-8.208,8.84-14.312v-53.464C320,242.416,314.048,231.904,304.472,226.152z M232,176h32v16h-32V176z
				 M304,456c0,13.232-10.768,24-24,24h-64c-13.232,0-24-10.768-24-24v-31.48c13,1.144,24.792,4.752,37.992,9
				c19.512,6.28,41.56,13.248,74.008,14.272V456z M304,431.792c-30-1.032-50.736-7.592-69.104-13.504
				c-14.064-4.528-27.48-8.808-42.896-9.96v-11.384l9.888-4.944h92.216l9.896,4.944V431.792z M288,360v16h-80v-16H288z M208,344v-16
				h80v16H208z M304,307.056L294.112,312h-92.224L192,307.056v-53.464c0-5.592,2.976-10.848,7.768-13.72L232,220.528V208h32v12.528
				l32.232,19.336c4.792,2.88,7.768,8.136,7.768,13.728V307.056z"/>
			<path d="M128.472,226.152L104,211.472V160H40v51.472l-24.472,14.68C5.952,231.904,0,242.416,0,253.592v53.464
				c0,6.104,3.392,11.584,8.84,14.312l7.16,3.576v54.112l-7.16,3.576C3.392,385.36,0,390.84,0,396.944V456c0,22.056,17.944,40,40,40
				h64c22.056,0,40-17.944,40-40v-59.056c0-6.104-3.392-11.584-8.84-14.312l-7.16-3.576v-54.112l7.16-3.576
				c5.448-2.728,8.84-8.208,8.84-14.312v-53.464C144,242.416,138.048,231.904,128.472,226.152z M56,176h32v16H56V176z M128,456
				c0,13.232-10.768,24-24,24H40c-13.232,0-24-10.768-24-24v-59.056L25.888,392h92.216l9.896,4.944V456z M112,360v16H32v-16H112z
				 M32,344v-16h80v16H32z M128,307.056L118.112,312H25.888L16,307.056v-53.464c0-5.592,2.976-10.848,7.768-13.728L56,220.528V208
				h32v12.528l32.232,19.336c4.792,2.88,7.768,8.136,7.768,13.728V307.056z"/>
			<path d="M320,40h-16V0h-16v40h-16V0h-16v40h-16V0h-16v40h-16V0h-16v40h-16V0h-16v56h48v56h32v32h16v-32h32V56h48V0h-16V40z
				 M272,96h-48V56h48V96z"/>
		</g>
	</g>
</g>
<g>
</g>
<g>
</g>
<g>
</g>
<g>
</g>
<g>
</g>
<g>
</g>
<g>
</g>
<g>
</g>
<g>
</g>
<g>
</g>
<g>
</g>
<g>
</g>
<g>
</g>
<g>
</g>
<g>
</g>
</svg>
