<svg height="480pt" viewBox="0 0 480 480.09942" width="480pt" xmlns="http://www.w3.org/2000/svg"><path d="m304.378906 304.097656 16.480469-56h103.191406v1.472656c-11.019531 3.898438-17.632812 15.167969-15.65625 26.6875 1.976563 11.519532 11.964844 19.941407 23.65625 19.941407 11.6875 0 21.675781-8.421875 23.652344-19.941407 1.976563-11.519531-4.632813-22.789062-15.652344-26.6875v-9.472656c0-2.515625-1.1875-4.886718-3.199219-6.398437l-94.082031-70.550781-38.71875-108.425782v-8.09375c11.019531-3.898437 17.628907-15.167968 15.652344-26.6875-1.976563-11.519531-11.964844-19.941406-23.652344-19.941406-11.691406 0-21.679687 8.421875-23.65625 19.941406-1.976562 11.519532 4.636719 22.789063 15.65625 26.6875v8.09375l-37.601562 105.375h-20.800781l-37.597657-105.375v-8.09375c11.019531-3.898437 17.628907-15.167968 15.652344-26.6875-1.976563-11.519531-11.964844-19.941406-23.652344-19.941406-11.691406 0-21.679687 8.421875-23.65625 19.941406-1.976562 11.519532 4.636719 22.789063 15.65625 26.6875v8.09375l-38.722656 108.425782-94.078125 70.550781c-2.015625 1.511719-3.199219 3.882812-3.199219 6.398437v9.472656c-11.019531 3.898438-17.632812 15.167969-15.65625 26.6875 1.976563 11.519532 11.964844 19.941407 23.65625 19.941407 11.6875 0 21.675781-8.421875 23.652344-19.941407 1.976563-11.519531-4.632813-22.789062-15.652344-26.6875v-1.472656h103.199219l16.480469 56-45.722657 160h-129.9570308v16h479.9999998v-16h-129.960937zm-48.328125-128h59.0625l-75.0625 67.203125-75.066406-67.203125zm23.640625 136-39.640625 50.96875-39.640625-50.96875zm-74.707031-16 35.066406-31.367187 35.0625 31.367187zm87.707031 25.355469 15.253906 53.398437-52.695312-5.265624zm-.746094-31.761719-39.894531-35.695312 68.390625-61.199219zm75.0625-88.375-39.6875 24.800782 13.152344-44.714844zm-227.382812-19.90625 13.152344 44.714844-39.6875-24.800781zm88.425781 72.585938-39.898437 35.703125-28.496094-96.902344zm-40.640625 67.457031 37.441406 48.132813-52.699218 5.265624zm125.261719 69.949219 15.859375 55.480468-65.480469-60.4375zm119.378906-111.304688c-4.417969 0-8-3.578125-8-8 0-4.417968 3.582031-8 8-8s8 3.582032 8 8c0 4.421875-3.582031 8-8 8zm-84.105469-48 32.800782-20.484375 27.304687 20.484375zm-29.777343-90.269531-33.703125-29.496094 11.585937-32.441406zm-22.117188-125.730469c4.417969 0 8 3.582032 8 8 0 4.421875-3.582031 8-8 8s-8-3.578125-8-8c0-4.417968 3.582031-8 8-8zm-17.378906 112.433594 36.082031 31.566406h-47.351562zm-113.324219 31.566406 36.078125-31.566406 11.273438 31.566406zm-3.417968-18.269531 22.121093-61.9375 11.582031 32.441406zm22.121093-125.730469c4.417969 0 8 3.582032 8 8 0 4.421875-3.582031 8-8 8s-8-3.578125-8-8c0-4.417968 3.582031-8 8-8zm-136 264c-4.417969 0-8-3.578125-8-8 0-4.417968 3.582031-8 8-8s8 3.582032 8 8c0 4.421875-3.582031 8-8 8zm51.320313-68.484375 32.78125 20.484375h-60.101563zm68.054687 179.789063 49.601563-4.957032-65.457032 60.4375zm72.625-4.414063 83.535157 77.109375h-167.070313zm0 0"/></svg>