<svg height="480pt" viewBox="-48 0 480 480" width="480pt" xmlns="http://www.w3.org/2000/svg"><path d="m376 232h-96v-48h8v-16h-8v-104h8v-16h-8v-48h-176v48h-8v16h8v104h-8v16h8v48h-96v56h-8v16h8v104h-8v16h8v56h176v-56h16v56h176v-56h8v-16h-8v-104h8v-16h-8zm-16 16v40h-144v-40zm-160 40h-16v-40h16zm-80-272h144v32h-144zm0 48h144v104h-144zm0 120h144v48h-144zm-96 64h144v40h-144zm0 56h144v104h-144zm144 160h-144v-40h144zm24-56h-8v-104h16v104zm168 56h-144v-40h144zm0-56h-144v-104h144zm0 0"/><path d="m215.777344 104.910156-23.777344-29.710937-23.777344 29.722656c-9.960937 12.449219-8.628906 30.476563 3.054688 41.328125s29.761718 10.851562 41.445312 0 13.015625-28.878906 3.054688-41.328125zm-9.441406 20.851563c-.476563 3.886719-2.527344 7.40625-5.671876 9.742187-5.144531 3.824219-12.183593 3.824219-17.328124 0-3.128907-2.347656-5.167969-5.863281-5.664063-9.742187-.492187-3.878907.609375-7.792969 3.046875-10.851563l11.28125-14.109375 11.289062 14.101563c2.457032 3.050781 3.554688 6.972656 3.046876 10.859375zm0 0"/><path d="m119.777344 344.910156-23.777344-29.710937-23.777344 29.722656c-9.960937 12.449219-8.628906 30.476563 3.054688 41.328125s29.761718 10.851562 41.445312 0 13.015625-28.878906 3.054688-41.328125zm-9.441406 20.851563c-.476563 3.886719-2.527344 7.40625-5.671876 9.742187-5.144531 3.824219-12.183593 3.824219-17.328124 0-3.128907-2.347656-5.167969-5.863281-5.664063-9.742187-.492187-3.878907.609375-7.792969 3.046875-10.851563l11.28125-14.109375 11.289062 14.101563c2.457032 3.050781 3.554688 6.972656 3.046876 10.859375zm0 0"/><path d="m257.792969 367.785156c1.632812 12.785156 11.136719 23.15625 23.734375 25.894532 12.59375 2.738281 25.546875-2.75 32.339844-13.703126 6.796874-10.953124 5.957031-24.996093-2.089844-35.066406l-23.777344-29.710937-23.777344 29.722656c-5.171875 6.421875-7.496094 14.683594-6.429687 22.863281zm18.917969-12.875 11.289062-14.109375 11.289062 14.101563c2.441407 3.058594 3.539063 6.972656 3.046876 10.851562-.496094 3.882813-2.542969 7.394532-5.671876 9.742188-5.144531 3.824218-12.183593 3.824218-17.328124 0-3.128907-2.347656-5.167969-5.863282-5.664063-9.742188-.492187-3.878906.609375-7.792968 3.046875-10.851562zm0 0"/></svg>