<?xml version="1.0" encoding="iso-8859-1"?>
<!-- Generator: Adobe Illustrator 18.0.0, SVG Export Plug-In . SVG Version: 6.00 Build 0)  -->
<!DOCTYPE svg PUBLIC "-//W3C//DTD SVG 1.1//EN" "http://www.w3.org/Graphics/SVG/1.1/DTD/svg11.dtd">
<svg version="1.1" id="Capa_1" xmlns="http://www.w3.org/2000/svg" xmlns:xlink="http://www.w3.org/1999/xlink" x="0px" y="0px"
	 viewBox="0 0 308 308" style="enable-background:new 0 0 308 308;" xml:space="preserve">
<g>
	<path d="M190.333,95.637c-4.142,0-7.5,3.358-7.5,7.5c0,4.142,3.358,7.5,7.5,7.5h15c4.142,0,7.5-3.358,7.5-7.5
		c0-4.142-3.358-7.5-7.5-7.5H190.333z"/>
	<path d="M117.701,275.637H88.313c-4.142,0-7.5,3.358-7.5,7.5c0,4.142,3.358,7.5,7.5,7.5h29.388c4.142,0,7.5-3.358,7.5-7.5
		C125.201,278.995,121.843,275.637,117.701,275.637z"/>
	<path d="M7.5,157.161c4.142,0,7.5-3.358,7.5-7.5v-26.524c0-0.602,0.042-1.205,0.127-1.793c0.586-4.1-2.263-7.9-6.363-8.485
		c-4.102-0.591-7.899,2.263-8.485,6.363C0.093,120.51,0,121.828,0,123.137v26.524C0,153.803,3.358,157.161,7.5,157.161z"/>
	<path d="M39.332,275.637H27.5c-3.726,0-7.23-1.645-9.617-4.514c-2.649-3.184-7.377-3.619-10.563-0.97
		c-3.184,2.649-3.619,7.378-0.97,10.563c5.245,6.305,12.954,9.921,21.149,9.921h11.832c4.142,0,7.5-3.358,7.5-7.5
		C46.832,278.995,43.474,275.637,39.332,275.637z"/>
	<path d="M196.069,275.637h-29.388c-4.142,0-7.5,3.358-7.5,7.5c0,4.142,3.358,7.5,7.5,7.5h29.388c4.142,0,7.5-3.358,7.5-7.5
		C203.569,278.995,200.211,275.637,196.069,275.637z"/>
	<path d="M15,228.029v-29.388c0-4.142-3.358-7.5-7.5-7.5s-7.5,3.358-7.5,7.5v29.388c0,4.142,3.358,7.5,7.5,7.5
		S15,232.171,15,228.029z"/>
	<path d="M300.5,136.391c-4.142,0-7.5,3.358-7.5,7.5v29.388c0,4.142,3.358,7.5,7.5,7.5s7.5-3.358,7.5-7.5v-29.388
		C308,139.749,304.642,136.391,300.5,136.391z"/>
	<path d="M300.5,214.759c-4.142,0-7.5,3.358-7.5,7.5v29.389c0,4.142,3.358,7.5,7.5,7.5s7.5-3.358,7.5-7.5v-29.389
		C308,218.117,304.642,214.759,300.5,214.759z"/>
	<path d="M274.438,275.637H245.05c-4.142,0-7.5,3.358-7.5,7.5c0,4.142,3.358,7.5,7.5,7.5h29.388c4.142,0,7.5-3.358,7.5-7.5
		C281.938,278.995,278.58,275.637,274.438,275.637z"/>
	<path d="M284.872,95.983c-1.438-0.23-2.909-0.347-4.372-0.347h-26.186c-4.142,0-7.5,3.358-7.5,7.5c0,4.142,3.358,7.5,7.5,7.5H280.5
		c0.672,0,1.346,0.053,2.002,0.158c0.401,0.064,0.8,0.095,1.194,0.095c3.62,0,6.807-2.627,7.397-6.316
		C291.747,100.483,288.961,96.637,284.872,95.983z"/>
	<path d="M47.999,110.637h15c4.142,0,7.5-3.358,7.5-7.5c0-4.142-3.358-7.5-7.5-7.5h-15c-4.142,0-7.5,3.358-7.5,7.5
		C40.499,107.279,43.857,110.637,47.999,110.637z"/>
	<path d="M225.761,54.122c-2.282-5.03-8.209-7.257-13.238-4.976l-90.312,40.965l-7.151-3.244c4.929-3.328,8.828-7.803,11.253-13.18
		c4.159-9.221,3.512-20.188-1.773-30.087c-4.905-9.186-13.328-16.825-23.719-21.51c-6.857-3.093-14.27-4.727-21.434-4.727
		c-15.542,0-28.613,7.578-34.113,19.776c-4.159,9.221-3.513,20.188,1.772,30.086c4.899,9.176,13.311,16.808,23.688,21.495
		c0.004,0.002,0.007,0.004,0.011,0.006l27.259,12.365l-27.259,12.365c-0.006,0.003-0.011,0.006-0.017,0.009
		c-10.374,4.687-18.784,12.318-23.682,21.492c-5.285,9.899-5.931,20.865-1.773,30.085c5.5,12.199,18.572,19.777,34.114,19.777
		c0.001,0,0.001,0,0.002,0c7.163,0,14.575-1.635,21.432-4.727c22.343-10.077,33.778-33.223,25.492-51.597
		c-2.425-5.376-6.324-9.852-11.253-13.18l7.151-3.244l90.312,40.965c1.34,0.608,2.744,0.896,4.125,0.896
		c3.804,0,7.439-2.182,9.113-5.872c2.281-5.03,0.053-10.956-4.976-13.238l-74.365-33.732l74.365-33.732
		C225.814,65.079,228.042,59.152,225.761,54.122z M92.2,73.463c-4.351,0-8.92-1.023-13.213-2.96
		c-6.293-2.837-11.504-7.466-14.297-12.698c-1.376-2.577-3.359-7.62-1.184-12.445c2.225-4.934,8.309-7.998,15.881-7.998
		c4.351,0,8.92,1.023,13.212,2.958c6.293,2.838,11.504,7.466,14.298,12.699c1.376,2.577,3.36,7.621,1.184,12.444
		C105.856,70.399,99.771,73.463,92.2,73.463z M92.599,161.862c-4.292,1.936-8.86,2.958-13.21,2.958h-0.001
		c-7.572-0.001-13.658-3.065-15.882-7.999c-2.175-4.824-0.192-9.867,1.184-12.444c2.793-5.232,8.004-9.86,14.298-12.698
		c4.293-1.936,8.861-2.959,13.212-2.959c7.571,0,13.657,3.064,15.882,7.999C111.771,144.898,104.68,156.413,92.599,161.862z"/>
</g>
<g>
</g>
<g>
</g>
<g>
</g>
<g>
</g>
<g>
</g>
<g>
</g>
<g>
</g>
<g>
</g>
<g>
</g>
<g>
</g>
<g>
</g>
<g>
</g>
<g>
</g>
<g>
</g>
<g>
</g>
</svg>
