<?xml version="1.0" encoding="iso-8859-1"?>
<!-- Generator: Adobe Illustrator 19.0.0, SVG Export Plug-In . SVG Version: 6.00 Build 0)  -->
<svg version="1.1" id="Layer_1" xmlns="http://www.w3.org/2000/svg" xmlns:xlink="http://www.w3.org/1999/xlink" x="0px" y="0px"
	 viewBox="0 0 512.031 512.031" style="enable-background:new 0 0 512.031 512.031;" xml:space="preserve">
<g>
	<g>
		<g>
			<path d="M511.68,362.255c-0.747-2.88-2.667-5.333-5.227-6.72l-180.16-99.627l180.16-99.627c5.12-2.88,7.04-9.387,4.16-14.507
				c-1.387-2.56-3.84-4.373-6.613-5.12c-40.853-10.773-96.747-25.6-143.787,1.28c-29.867,20.053-73.707,49.387-112,74.88
				l-67.307-37.227c2.667-8.533,4.053-17.493,4.053-26.347c0-49.92-41.493-90.453-92.48-90.453C41.493,58.789,0,99.215,0,149.029
				s41.493,90.56,92.48,90.56h0.213c25.387-0.427,65.92,1.707,76.373,7.68c2.027,1.173,6.827,4.16,13.76,8.64
				c-6.827,4.373-11.627,7.467-13.76,8.64c-10.347,5.867-50.773,8.107-76.48,7.68C41.493,272.229,0,312.869,0,362.682
				c0,49.813,41.493,90.56,92.48,90.56c50.987,0,92.48-40.64,92.48-90.56c0-8.96-1.387-17.813-4.053-26.347l67.413-37.227
				c52.907,35.2,112,74.88,112.747,75.307c19.2,10.987,40.107,14.827,60.907,14.827c29.227,0,58.347-7.68,82.133-13.973
				C509.76,373.775,513.173,367.909,511.68,362.255z M179.52,228.815c-16.64-9.493-61.547-10.56-80.533-10.56
				c-2.88,0-5.12,0-6.613,0c-39.147,0-71.04-31.04-71.04-69.12c0-38.08,31.893-69.12,71.147-69.12
				c39.253,0,71.147,31.04,71.147,69.227c0,9.28-1.92,18.453-5.653,26.987c-2.24,5.013-0.213,10.987,4.587,13.653l65.067,35.947
				c-9.28,6.187-18.027,11.947-25.92,17.067C189.653,235.109,182.613,230.522,179.52,228.815z M242.987,276.496
				c-1.067,0.64-1.92,1.387-2.667,2.24l-77.867,42.987c-4.8,2.773-6.827,8.64-4.587,13.653c3.733,8.533,5.653,17.707,5.653,26.987
				c0,38.187-31.893,69.227-71.147,69.227c-39.253,0-71.04-31.04-71.04-69.227s31.893-69.227,70.933-69.227
				c11.2,0.107,68.053,0.427,87.253-10.453c17.707-10.133,185.6-122.773,192-127.147c29.227-16.64,63.147-13.76,100.907-5.227
				l-170.667,94.4c-1.173,0.213-2.24,0.533-3.307,1.067L242.987,276.496z M372.16,355.855c0,0-52.48-35.307-102.827-68.8
				l34.987-19.307l168.107,93.013C434.667,369.295,400.853,372.175,372.16,355.855z"/>
			<path d="M90.667,90.255C58.347,90.255,32,114.149,32,143.589s26.347,53.333,58.667,53.333s58.667-23.893,58.667-53.333
				S122.987,90.255,90.667,90.255z M90.667,175.589c-20.587,0-37.333-14.4-37.333-32c0-17.6,16.747-32,37.333-32
				s37.333,14.4,37.333,32C128,161.189,111.253,175.589,90.667,175.589z"/>
			<path d="M90.667,303.589c-32.32,0-58.667,23.893-58.667,53.333s26.347,53.333,58.667,53.333s58.667-23.893,58.667-53.333
				S122.987,303.589,90.667,303.589z M90.667,388.922c-20.587,0-37.333-14.4-37.333-32c0-17.6,16.747-32,37.333-32
				s37.333,14.4,37.333,32C128,374.522,111.253,388.922,90.667,388.922z"/>
		</g>
	</g>
</g>
<g>
</g>
<g>
</g>
<g>
</g>
<g>
</g>
<g>
</g>
<g>
</g>
<g>
</g>
<g>
</g>
<g>
</g>
<g>
</g>
<g>
</g>
<g>
</g>
<g>
</g>
<g>
</g>
<g>
</g>
</svg>
