<?xml version="1.0" encoding="iso-8859-1"?>
<!-- Generator: Adobe Illustrator 19.0.0, SVG Export Plug-In . SVG Version: 6.00 Build 0)  -->
<svg version="1.1" id="Layer_1" xmlns="http://www.w3.org/2000/svg" xmlns:xlink="http://www.w3.org/1999/xlink" x="0px" y="0px"
	 viewBox="0 0 512 512" style="enable-background:new 0 0 512 512;" xml:space="preserve">
<g>
	<g>
		<path d="M392.788,123.93h-51.161c-6.441,0-11.662,5.221-11.662,11.662v51.161c0,6.441,5.221,11.662,11.662,11.662h13.918v6.138
			c0,23.648-19.239,42.887-42.887,42.887c-16.35,0-31.323,5.969-42.886,15.827v-158.05l16.733,10.038
			c3.269,1.962,6.876,2.923,10.455,2.922c4.956,0,9.858-1.844,13.731-5.43c6.67-6.177,8.419-15.79,4.354-23.92l-38.816-77.633
			C272.774,4.289,265.83-0.001,258.108,0c-7.721,0-14.662,4.292-18.115,11.197L201.177,88.83c-4.066,8.131-2.317,17.744,4.353,23.92
			c6.671,6.177,16.39,7.185,24.185,2.508l16.733-10.038v222.974c-11.716-10.475-27.162-16.859-44.078-16.859
			c-23.648,0-42.887-19.238-42.887-42.887v-7.867c16.536-5.014,28.611-20.393,28.611-38.545c0-22.207-18.067-40.273-40.273-40.273
			s-40.273,18.067-40.273,40.273c0,18.152,12.074,33.531,28.611,38.545v7.867c0,36.51,29.702,66.212,66.212,66.212
			c23.648,0,42.887,19.238,42.887,42.886c0,1.835,0.436,3.566,1.192,5.111v31.372c-21.785,5.263-38.022,24.91-38.022,48.289
			c0,27.396,22.288,49.683,49.684,49.683c27.395,0,49.683-22.288,49.683-49.683c0-23.379-16.235-43.026-38.021-48.289V313.652
			c0-23.648,19.238-42.886,42.886-42.886c36.508,0,66.212-29.702,66.212-66.212v-6.138h13.919c6.441,0,11.662-5.221,11.662-11.662
			v-51.161C404.451,129.151,399.23,123.93,392.788,123.93z M147.822,238.986c-9.346,0-16.949-7.604-16.949-16.949
			c0-9.346,7.603-16.949,16.949-16.949c9.346,0,16.949,7.603,16.949,16.949C164.77,231.382,157.167,238.986,147.822,238.986z
			 M226.752,89.835l31.359-62.716l31.359,62.716L268.53,77.273c-3.214-1.927-6.817-2.891-10.419-2.891
			c-3.604,0-7.207,0.964-10.421,2.891L226.752,89.835z M284.469,462.317c0,14.534-11.825,26.358-26.358,26.358
			c-14.535,0-26.36-11.825-26.36-26.358s11.824-26.36,26.36-26.36C272.644,435.957,284.469,447.782,284.469,462.317z
			 M381.126,175.091h-27.836v-27.836h27.836V175.091z"/>
	</g>
</g>
<g>
</g>
<g>
</g>
<g>
</g>
<g>
</g>
<g>
</g>
<g>
</g>
<g>
</g>
<g>
</g>
<g>
</g>
<g>
</g>
<g>
</g>
<g>
</g>
<g>
</g>
<g>
</g>
<g>
</g>
</svg>
